<mxfile host="app.diagrams.net" modified="2022-07-23T02:42:50.277Z" agent="5.0 (Windows NT 10.0; Win64; x64) AppleWebKit/537.36 (KHTML, like Gecko) Chrome/97.0.4692.99 Safari/537.36" etag="LyuOas4JX44tkGudLPH5" version="20.1.4" type="github">
  <diagram id="ojnK0p3J3MTXAop_F5v3" name="Page-1">
    <mxGraphModel dx="3961" dy="1287" grid="0" gridSize="10" guides="1" tooltips="1" connect="0" arrows="1" fold="1" page="1" pageScale="1" pageWidth="827" pageHeight="1169" math="0" shadow="0">
      <root>
        <mxCell id="0" />
        <mxCell id="1" parent="0" />
        <mxCell id="l_XuRvR61M2AbJogMl1h-1" value="魔镜监控系统" style="rounded=0;whiteSpace=wrap;html=1;" parent="1" vertex="1">
          <mxGeometry x="264" y="207" width="316" height="60" as="geometry" />
        </mxCell>
        <mxCell id="l_XuRvR61M2AbJogMl1h-2" value="注册、登录" style="rounded=0;whiteSpace=wrap;html=1;" parent="1" vertex="1">
          <mxGeometry x="32" y="347" width="120" height="60" as="geometry" />
        </mxCell>
        <mxCell id="0k4BuSOVnENNucScM7A2-1" value="前端监控" style="rounded=0;whiteSpace=wrap;html=1;" parent="1" vertex="1">
          <mxGeometry x="202" y="347" width="120" height="60" as="geometry" />
        </mxCell>
        <mxCell id="0k4BuSOVnENNucScM7A2-8" value="" style="edgeStyle=elbowEdgeStyle;elbow=vertical;endArrow=classic;html=1;rounded=0;entryX=0.5;entryY=0;entryDx=0;entryDy=0;exitX=0.5;exitY=1;exitDx=0;exitDy=0;" parent="1" source="l_XuRvR61M2AbJogMl1h-1" target="l_XuRvR61M2AbJogMl1h-2" edge="1">
          <mxGeometry width="50" height="50" relative="1" as="geometry">
            <mxPoint x="326" y="266" as="sourcePoint" />
            <mxPoint x="273" y="517" as="targetPoint" />
          </mxGeometry>
        </mxCell>
        <mxCell id="0k4BuSOVnENNucScM7A2-9" value="系统监控" style="rounded=0;whiteSpace=wrap;html=1;" parent="1" vertex="1">
          <mxGeometry x="362" y="347" width="120" height="60" as="geometry" />
        </mxCell>
        <mxCell id="0k4BuSOVnENNucScM7A2-10" value="礼包监控" style="rounded=0;whiteSpace=wrap;html=1;" parent="1" vertex="1">
          <mxGeometry x="522" y="347" width="120" height="60" as="geometry" />
        </mxCell>
        <mxCell id="0k4BuSOVnENNucScM7A2-15" value="&lt;div style=&quot;font-size: 12px;&quot;&gt;白名单日志&lt;br style=&quot;font-size: 12px;&quot;&gt;&lt;/div&gt;" style="rounded=0;whiteSpace=wrap;html=1;verticalAlign=middle;horizontal=1;textDirection=rtl;align=center;fontSize=12;labelBackgroundColor=none;labelBorderColor=none;shadow=0;fontFamily=Helvetica;labelPosition=center;verticalLabelPosition=middle;" parent="1" vertex="1">
          <mxGeometry x="268.5" y="467" width="18" height="150" as="geometry" />
        </mxCell>
        <mxCell id="0k4BuSOVnENNucScM7A2-16" value="" style="edgeStyle=elbowEdgeStyle;elbow=vertical;endArrow=classic;html=1;exitX=0.5;exitY=1;exitDx=0;exitDy=0;entryX=0.5;entryY=0;entryDx=0;entryDy=0;rounded=0;" parent="1" source="0k4BuSOVnENNucScM7A2-1" target="0k4BuSOVnENNucScM7A2-15" edge="1">
          <mxGeometry width="50" height="50" relative="1" as="geometry">
            <mxPoint x="263" y="717" as="sourcePoint" />
            <mxPoint x="313" y="667" as="targetPoint" />
            <Array as="points">
              <mxPoint x="273" y="437" />
            </Array>
          </mxGeometry>
        </mxCell>
        <mxCell id="0k4BuSOVnENNucScM7A2-19" value="" style="edgeStyle=elbowEdgeStyle;elbow=vertical;endArrow=classic;html=1;rounded=0;" parent="1" source="0k4BuSOVnENNucScM7A2-1" target="0k4BuSOVnENNucScM7A2-27" edge="1">
          <mxGeometry width="50" height="50" relative="1" as="geometry">
            <mxPoint x="373" y="667" as="sourcePoint" />
            <mxPoint x="191" y="467" as="targetPoint" />
          </mxGeometry>
        </mxCell>
        <mxCell id="0k4BuSOVnENNucScM7A2-20" value="" style="edgeStyle=elbowEdgeStyle;elbow=vertical;endArrow=classic;html=1;rounded=0;" parent="1" source="0k4BuSOVnENNucScM7A2-1" target="0k4BuSOVnENNucScM7A2-26" edge="1">
          <mxGeometry width="50" height="50" relative="1" as="geometry">
            <mxPoint x="473" y="477" as="sourcePoint" />
            <mxPoint x="321" y="467" as="targetPoint" />
          </mxGeometry>
        </mxCell>
        <mxCell id="0k4BuSOVnENNucScM7A2-21" value="" style="edgeStyle=elbowEdgeStyle;elbow=vertical;endArrow=classic;html=1;rounded=0;" parent="1" source="0k4BuSOVnENNucScM7A2-1" target="0k4BuSOVnENNucScM7A2-30" edge="1">
          <mxGeometry width="50" height="50" relative="1" as="geometry">
            <mxPoint x="193" y="677" as="sourcePoint" />
            <mxPoint x="451" y="467" as="targetPoint" />
          </mxGeometry>
        </mxCell>
        <mxCell id="0k4BuSOVnENNucScM7A2-22" value="" style="edgeStyle=elbowEdgeStyle;elbow=vertical;endArrow=classic;html=1;rounded=0;" parent="1" source="l_XuRvR61M2AbJogMl1h-1" target="0k4BuSOVnENNucScM7A2-1" edge="1">
          <mxGeometry width="50" height="50" relative="1" as="geometry">
            <mxPoint x="153" y="657" as="sourcePoint" />
            <mxPoint x="203" y="607" as="targetPoint" />
          </mxGeometry>
        </mxCell>
        <mxCell id="0k4BuSOVnENNucScM7A2-23" value="" style="edgeStyle=elbowEdgeStyle;elbow=vertical;endArrow=classic;html=1;rounded=0;" parent="1" source="l_XuRvR61M2AbJogMl1h-1" target="0k4BuSOVnENNucScM7A2-9" edge="1">
          <mxGeometry width="50" height="50" relative="1" as="geometry">
            <mxPoint x="203" y="647" as="sourcePoint" />
            <mxPoint x="253" y="597" as="targetPoint" />
          </mxGeometry>
        </mxCell>
        <mxCell id="0k4BuSOVnENNucScM7A2-24" value="" style="edgeStyle=elbowEdgeStyle;elbow=vertical;endArrow=classic;html=1;rounded=0;" parent="1" source="l_XuRvR61M2AbJogMl1h-1" target="0k4BuSOVnENNucScM7A2-10" edge="1">
          <mxGeometry width="50" height="50" relative="1" as="geometry">
            <mxPoint x="213" y="677" as="sourcePoint" />
            <mxPoint x="263" y="627" as="targetPoint" />
          </mxGeometry>
        </mxCell>
        <mxCell id="0k4BuSOVnENNucScM7A2-26" value="&lt;div style=&quot;font-size: 12px;&quot;&gt;性能监控&lt;br style=&quot;font-size: 12px;&quot;&gt;&lt;/div&gt;" style="rounded=0;whiteSpace=wrap;html=1;verticalAlign=middle;horizontal=1;textDirection=rtl;align=center;fontSize=12;labelBackgroundColor=none;labelBorderColor=none;shadow=0;fontFamily=Helvetica;labelPosition=center;verticalLabelPosition=middle;" parent="1" vertex="1">
          <mxGeometry x="182.5" y="467" width="18" height="150" as="geometry" />
        </mxCell>
        <mxCell id="0k4BuSOVnENNucScM7A2-27" value="&lt;div style=&quot;font-size: 12px;&quot;&gt;&lt;span style=&quot;font-size: 12px;&quot;&gt;错误监控&lt;/span&gt;&lt;br style=&quot;font-size: 12px;&quot;&gt;&lt;/div&gt;" style="rounded=0;whiteSpace=wrap;html=1;verticalAlign=middle;horizontal=1;textDirection=rtl;align=center;fontSize=12;labelBackgroundColor=none;labelBorderColor=none;shadow=0;fontFamily=Helvetica;labelPosition=center;verticalLabelPosition=middle;" parent="1" vertex="1">
          <mxGeometry x="227.5" y="467" width="18" height="150" as="geometry" />
        </mxCell>
        <mxCell id="0k4BuSOVnENNucScM7A2-30" value="&lt;div style=&quot;font-size: 12px;&quot;&gt;离线日志&lt;br style=&quot;font-size: 12px;&quot;&gt;&lt;/div&gt;" style="rounded=0;whiteSpace=wrap;html=1;verticalAlign=middle;horizontal=1;textDirection=rtl;align=center;fontSize=12;labelBackgroundColor=none;labelBorderColor=none;shadow=0;fontFamily=Helvetica;labelPosition=center;verticalLabelPosition=middle;" parent="1" vertex="1">
          <mxGeometry x="311.5" y="467" width="18" height="150" as="geometry" />
        </mxCell>
        <mxCell id="0k4BuSOVnENNucScM7A2-40" value="&lt;div style=&quot;font-size: 12px;&quot;&gt;工单推送&lt;/div&gt;" style="rounded=0;whiteSpace=wrap;html=1;verticalAlign=middle;horizontal=1;textDirection=rtl;align=center;fontSize=12;labelBackgroundColor=none;labelBorderColor=none;shadow=0;fontFamily=Helvetica;labelPosition=center;verticalLabelPosition=middle;" parent="1" vertex="1">
          <mxGeometry x="451.5" y="467" width="18" height="150" as="geometry" />
        </mxCell>
        <mxCell id="0k4BuSOVnENNucScM7A2-41" value="&lt;div style=&quot;font-size: 12px;&quot;&gt;告警配置&lt;br style=&quot;font-size: 12px;&quot;&gt;&lt;/div&gt;" style="rounded=0;whiteSpace=wrap;html=1;verticalAlign=middle;horizontal=1;textDirection=rtl;align=center;fontSize=12;labelBackgroundColor=none;labelBorderColor=none;shadow=0;fontFamily=Helvetica;labelPosition=center;verticalLabelPosition=middle;" parent="1" vertex="1">
          <mxGeometry x="374.5" y="467" width="18" height="150" as="geometry" />
        </mxCell>
        <mxCell id="0k4BuSOVnENNucScM7A2-42" value="&lt;div style=&quot;font-size: 12px;&quot;&gt;&lt;span style=&quot;font-size: 12px;&quot;&gt;活动拓扑信息&lt;/span&gt;&lt;br style=&quot;font-size: 12px;&quot;&gt;&lt;/div&gt;" style="rounded=0;whiteSpace=wrap;html=1;verticalAlign=middle;horizontal=1;textDirection=rtl;align=center;fontSize=12;labelBackgroundColor=none;labelBorderColor=none;shadow=0;fontFamily=Helvetica;labelPosition=center;verticalLabelPosition=middle;" parent="1" vertex="1">
          <mxGeometry x="414.5" y="467" width="18" height="150" as="geometry" />
        </mxCell>
        <mxCell id="0k4BuSOVnENNucScM7A2-47" value="" style="edgeStyle=elbowEdgeStyle;elbow=vertical;endArrow=classic;html=1;rounded=0;" parent="1" source="0k4BuSOVnENNucScM7A2-9" target="0k4BuSOVnENNucScM7A2-41" edge="1">
          <mxGeometry width="50" height="50" relative="1" as="geometry">
            <mxPoint x="33" y="667" as="sourcePoint" />
            <mxPoint x="83" y="617" as="targetPoint" />
          </mxGeometry>
        </mxCell>
        <mxCell id="0k4BuSOVnENNucScM7A2-48" value="" style="edgeStyle=elbowEdgeStyle;elbow=vertical;endArrow=classic;html=1;rounded=0;" parent="1" source="0k4BuSOVnENNucScM7A2-9" target="0k4BuSOVnENNucScM7A2-42" edge="1">
          <mxGeometry width="50" height="50" relative="1" as="geometry">
            <mxPoint x="133" y="747" as="sourcePoint" />
            <mxPoint x="183" y="697" as="targetPoint" />
            <Array as="points">
              <mxPoint x="416" y="467" />
            </Array>
          </mxGeometry>
        </mxCell>
        <mxCell id="0k4BuSOVnENNucScM7A2-49" value="" style="edgeStyle=elbowEdgeStyle;elbow=vertical;endArrow=classic;html=1;rounded=0;" parent="1" source="0k4BuSOVnENNucScM7A2-9" target="0k4BuSOVnENNucScM7A2-40" edge="1">
          <mxGeometry width="50" height="50" relative="1" as="geometry">
            <mxPoint x="73" y="707" as="sourcePoint" />
            <mxPoint x="123" y="657" as="targetPoint" />
          </mxGeometry>
        </mxCell>
        <mxCell id="0k4BuSOVnENNucScM7A2-51" value="&lt;div style=&quot;font-size: 12px;&quot;&gt;礼包异常监控&lt;/div&gt;" style="rounded=0;whiteSpace=wrap;html=1;verticalAlign=middle;horizontal=1;textDirection=rtl;align=center;fontSize=12;labelBackgroundColor=none;labelBorderColor=none;shadow=0;fontFamily=Helvetica;labelPosition=center;verticalLabelPosition=middle;" parent="1" vertex="1">
          <mxGeometry x="616" y="467" width="18" height="150" as="geometry" />
        </mxCell>
        <mxCell id="0k4BuSOVnENNucScM7A2-52" value="&lt;div style=&quot;font-size: 12px;&quot;&gt;礼包频率监控&lt;br style=&quot;font-size: 12px;&quot;&gt;&lt;/div&gt;" style="rounded=0;whiteSpace=wrap;html=1;verticalAlign=middle;horizontal=1;textDirection=rtl;align=center;fontSize=12;labelBackgroundColor=none;labelBorderColor=none;shadow=0;fontFamily=Helvetica;labelPosition=center;verticalLabelPosition=middle;" parent="1" vertex="1">
          <mxGeometry x="530" y="467" width="18" height="150" as="geometry" />
        </mxCell>
        <mxCell id="0k4BuSOVnENNucScM7A2-53" value="&lt;div style=&quot;font-size: 12px;&quot;&gt;&lt;span style=&quot;font-size: 12px;&quot;&gt;限量监控&lt;/span&gt;&lt;br style=&quot;font-size: 12px;&quot;&gt;&lt;/div&gt;" style="rounded=0;whiteSpace=wrap;html=1;verticalAlign=middle;horizontal=1;textDirection=rtl;align=center;fontSize=12;labelBackgroundColor=none;labelBorderColor=none;shadow=0;fontFamily=Helvetica;labelPosition=center;verticalLabelPosition=middle;" parent="1" vertex="1">
          <mxGeometry x="573" y="467" width="18" height="150" as="geometry" />
        </mxCell>
        <mxCell id="0k4BuSOVnENNucScM7A2-54" value="" style="edgeStyle=elbowEdgeStyle;elbow=vertical;endArrow=classic;html=1;rounded=0;" parent="1" source="0k4BuSOVnENNucScM7A2-10" target="0k4BuSOVnENNucScM7A2-52" edge="1">
          <mxGeometry width="50" height="50" relative="1" as="geometry">
            <mxPoint x="33" y="647" as="sourcePoint" />
            <mxPoint x="83" y="597" as="targetPoint" />
          </mxGeometry>
        </mxCell>
        <mxCell id="0k4BuSOVnENNucScM7A2-58" value="" style="edgeStyle=elbowEdgeStyle;elbow=vertical;endArrow=classic;html=1;rounded=0;" parent="1" source="0k4BuSOVnENNucScM7A2-10" target="0k4BuSOVnENNucScM7A2-53" edge="1">
          <mxGeometry width="50" height="50" relative="1" as="geometry">
            <mxPoint x="-7" y="597" as="sourcePoint" />
            <mxPoint x="43" y="547" as="targetPoint" />
          </mxGeometry>
        </mxCell>
        <mxCell id="0k4BuSOVnENNucScM7A2-59" value="" style="edgeStyle=elbowEdgeStyle;elbow=vertical;endArrow=classic;html=1;rounded=0;" parent="1" source="0k4BuSOVnENNucScM7A2-10" target="0k4BuSOVnENNucScM7A2-51" edge="1">
          <mxGeometry width="50" height="50" relative="1" as="geometry">
            <mxPoint x="-37" y="567" as="sourcePoint" />
            <mxPoint x="13" y="517" as="targetPoint" />
          </mxGeometry>
        </mxCell>
        <mxCell id="0k4BuSOVnENNucScM7A2-61" value="&lt;div style=&quot;font-size: 12px;&quot;&gt;登录&lt;br style=&quot;font-size: 12px;&quot;&gt;&lt;/div&gt;" style="rounded=0;whiteSpace=wrap;html=1;verticalAlign=middle;horizontal=1;textDirection=rtl;align=center;fontSize=12;labelBackgroundColor=none;labelBorderColor=none;shadow=0;fontFamily=Helvetica;labelPosition=center;verticalLabelPosition=middle;" parent="1" vertex="1">
          <mxGeometry x="83" y="464" width="18" height="150" as="geometry" />
        </mxCell>
        <mxCell id="0k4BuSOVnENNucScM7A2-62" value="&lt;div style=&quot;font-size: 12px;&quot;&gt;&lt;span style=&quot;font-size: 12px;&quot;&gt;退出&lt;/span&gt;&lt;br style=&quot;font-size: 12px;&quot;&gt;&lt;/div&gt;" style="rounded=0;whiteSpace=wrap;html=1;verticalAlign=middle;horizontal=1;textDirection=rtl;align=center;fontSize=12;labelBackgroundColor=none;labelBorderColor=none;shadow=0;fontFamily=Helvetica;labelPosition=center;verticalLabelPosition=middle;" parent="1" vertex="1">
          <mxGeometry x="119" y="464" width="18" height="150" as="geometry" />
        </mxCell>
        <mxCell id="0k4BuSOVnENNucScM7A2-67" value="" style="edgeStyle=elbowEdgeStyle;elbow=vertical;endArrow=classic;html=1;rounded=0;" parent="1" source="l_XuRvR61M2AbJogMl1h-2" target="0k4BuSOVnENNucScM7A2-61" edge="1">
          <mxGeometry width="50" height="50" relative="1" as="geometry">
            <mxPoint x="13" y="307" as="sourcePoint" />
            <mxPoint x="63" y="257" as="targetPoint" />
          </mxGeometry>
        </mxCell>
        <mxCell id="0k4BuSOVnENNucScM7A2-68" value="" style="edgeStyle=elbowEdgeStyle;elbow=vertical;endArrow=classic;html=1;rounded=0;" parent="1" source="l_XuRvR61M2AbJogMl1h-2" target="0k4BuSOVnENNucScM7A2-62" edge="1">
          <mxGeometry width="50" height="50" relative="1" as="geometry">
            <mxPoint x="-47" y="327" as="sourcePoint" />
            <mxPoint x="3" y="277" as="targetPoint" />
          </mxGeometry>
        </mxCell>
        <mxCell id="fYWc9rKdTb6CDzyfWaW0-3" value="数据可视化" style="rounded=0;whiteSpace=wrap;html=1;" parent="1" vertex="1">
          <mxGeometry x="683" y="347" width="120" height="60" as="geometry" />
        </mxCell>
        <mxCell id="fYWc9rKdTb6CDzyfWaW0-4" value="" style="edgeStyle=elbowEdgeStyle;elbow=vertical;endArrow=classic;html=1;rounded=0;" parent="1" source="l_XuRvR61M2AbJogMl1h-1" target="fYWc9rKdTb6CDzyfWaW0-3" edge="1">
          <mxGeometry width="50" height="50" relative="1" as="geometry">
            <mxPoint x="213" y="677" as="sourcePoint" />
            <mxPoint x="263" y="627" as="targetPoint" />
          </mxGeometry>
        </mxCell>
        <mxCell id="fYWc9rKdTb6CDzyfWaW0-5" value="&lt;div style=&quot;font-size: 12px;&quot;&gt;报警可视化&lt;/div&gt;" style="rounded=0;whiteSpace=wrap;html=1;verticalAlign=middle;horizontal=1;textDirection=rtl;align=center;fontSize=12;labelBackgroundColor=none;labelBorderColor=none;shadow=0;fontFamily=Helvetica;labelPosition=center;verticalLabelPosition=middle;" parent="1" vertex="1">
          <mxGeometry x="777" y="467" width="18" height="150" as="geometry" />
        </mxCell>
        <mxCell id="fYWc9rKdTb6CDzyfWaW0-6" value="&lt;div style=&quot;font-size: 12px;&quot;&gt;全链路拓扑图可视化&lt;br style=&quot;font-size: 12px;&quot;&gt;&lt;/div&gt;" style="rounded=0;whiteSpace=wrap;html=1;verticalAlign=middle;horizontal=1;textDirection=rtl;align=center;fontSize=12;labelBackgroundColor=none;labelBorderColor=none;shadow=0;fontFamily=Helvetica;labelPosition=center;verticalLabelPosition=middle;" parent="1" vertex="1">
          <mxGeometry x="691" y="467" width="18" height="150" as="geometry" />
        </mxCell>
        <mxCell id="fYWc9rKdTb6CDzyfWaW0-7" value="&lt;div style=&quot;font-size: 12px;&quot;&gt;&lt;span style=&quot;font-size: 12px;&quot;&gt;数据分层可视化&lt;/span&gt;&lt;br style=&quot;font-size: 12px;&quot;&gt;&lt;/div&gt;" style="rounded=0;whiteSpace=wrap;html=1;verticalAlign=middle;horizontal=1;textDirection=rtl;align=center;fontSize=12;labelBackgroundColor=none;labelBorderColor=none;shadow=0;fontFamily=Helvetica;labelPosition=center;verticalLabelPosition=middle;" parent="1" vertex="1">
          <mxGeometry x="734" y="467" width="18" height="150" as="geometry" />
        </mxCell>
        <mxCell id="fYWc9rKdTb6CDzyfWaW0-9" value="" style="edgeStyle=elbowEdgeStyle;elbow=vertical;endArrow=classic;html=1;rounded=0;" parent="1" source="fYWc9rKdTb6CDzyfWaW0-3" target="fYWc9rKdTb6CDzyfWaW0-6" edge="1">
          <mxGeometry width="50" height="50" relative="1" as="geometry">
            <mxPoint x="423" y="707" as="sourcePoint" />
            <mxPoint x="473" y="657" as="targetPoint" />
          </mxGeometry>
        </mxCell>
        <mxCell id="fYWc9rKdTb6CDzyfWaW0-10" value="" style="edgeStyle=elbowEdgeStyle;elbow=vertical;endArrow=classic;html=1;rounded=0;" parent="1" source="fYWc9rKdTb6CDzyfWaW0-3" target="fYWc9rKdTb6CDzyfWaW0-7" edge="1">
          <mxGeometry width="50" height="50" relative="1" as="geometry">
            <mxPoint x="423" y="707" as="sourcePoint" />
            <mxPoint x="473" y="657" as="targetPoint" />
          </mxGeometry>
        </mxCell>
        <mxCell id="fYWc9rKdTb6CDzyfWaW0-11" value="" style="edgeStyle=elbowEdgeStyle;elbow=vertical;endArrow=classic;html=1;rounded=0;" parent="1" source="fYWc9rKdTb6CDzyfWaW0-3" target="fYWc9rKdTb6CDzyfWaW0-5" edge="1">
          <mxGeometry width="50" height="50" relative="1" as="geometry">
            <mxPoint x="423" y="707" as="sourcePoint" />
            <mxPoint x="473" y="657" as="targetPoint" />
          </mxGeometry>
        </mxCell>
        <mxCell id="fYWc9rKdTb6CDzyfWaW0-12" value="&lt;div style=&quot;font-size: 12px;&quot;&gt;注册&lt;br style=&quot;font-size: 12px;&quot;&gt;&lt;/div&gt;" style="rounded=0;whiteSpace=wrap;html=1;verticalAlign=middle;horizontal=1;textDirection=rtl;align=center;fontSize=12;labelBackgroundColor=none;labelBorderColor=none;shadow=0;fontFamily=Helvetica;labelPosition=center;verticalLabelPosition=middle;" parent="1" vertex="1">
          <mxGeometry x="44" y="464" width="18" height="150" as="geometry" />
        </mxCell>
        <mxCell id="fYWc9rKdTb6CDzyfWaW0-13" value="" style="edgeStyle=elbowEdgeStyle;elbow=vertical;endArrow=classic;html=1;rounded=0;" parent="1" source="l_XuRvR61M2AbJogMl1h-2" target="fYWc9rKdTb6CDzyfWaW0-12" edge="1">
          <mxGeometry width="50" height="50" relative="1" as="geometry">
            <mxPoint x="13" y="307" as="sourcePoint" />
            <mxPoint x="63" y="257" as="targetPoint" />
          </mxGeometry>
        </mxCell>
        <mxCell id="fYWc9rKdTb6CDzyfWaW0-21" value="应用层" style="rounded=0;whiteSpace=wrap;html=1;verticalAlign=top;" parent="1" vertex="1">
          <mxGeometry x="33.5" y="1214" width="160" height="373" as="geometry" />
        </mxCell>
        <mxCell id="fYWc9rKdTb6CDzyfWaW0-22" value="Core" style="rounded=0;whiteSpace=wrap;html=1;" parent="1" vertex="1">
          <mxGeometry x="53.5" y="1274" width="114" height="36" as="geometry" />
        </mxCell>
        <mxCell id="fYWc9rKdTb6CDzyfWaW0-25" value="Web" style="rounded=0;whiteSpace=wrap;html=1;" parent="1" vertex="1">
          <mxGeometry x="51.5" y="1335" width="114" height="36" as="geometry" />
        </mxCell>
        <mxCell id="fYWc9rKdTb6CDzyfWaW0-26" value="SDK-Core" style="rounded=0;whiteSpace=wrap;html=1;" parent="1" vertex="1">
          <mxGeometry x="51.5" y="1396" width="114" height="36" as="geometry" />
        </mxCell>
        <mxCell id="fYWc9rKdTb6CDzyfWaW0-27" value="SDK-Plugin" style="rounded=0;whiteSpace=wrap;html=1;" parent="1" vertex="1">
          <mxGeometry x="54" y="1457" width="114" height="36" as="geometry" />
        </mxCell>
        <mxCell id="fYWc9rKdTb6CDzyfWaW0-29" value="接入层" style="rounded=0;whiteSpace=wrap;html=1;verticalAlign=top;" parent="1" vertex="1">
          <mxGeometry x="244" y="1214" width="160" height="373" as="geometry" />
        </mxCell>
        <mxCell id="fYWc9rKdTb6CDzyfWaW0-30" value="削峰/限流" style="rounded=0;whiteSpace=wrap;html=1;" parent="1" vertex="1">
          <mxGeometry x="264" y="1274" width="114" height="36" as="geometry" />
        </mxCell>
        <mxCell id="fYWc9rKdTb6CDzyfWaW0-31" value="数据加工" style="rounded=0;whiteSpace=wrap;html=1;" parent="1" vertex="1">
          <mxGeometry x="262" y="1335" width="114" height="36" as="geometry" />
        </mxCell>
        <mxCell id="fYWc9rKdTb6CDzyfWaW0-32" value="数据清洗" style="rounded=0;whiteSpace=wrap;html=1;" parent="1" vertex="1">
          <mxGeometry x="262" y="1396" width="114" height="36" as="geometry" />
        </mxCell>
        <mxCell id="fYWc9rKdTb6CDzyfWaW0-33" value="数据聚合" style="rounded=0;whiteSpace=wrap;html=1;" parent="1" vertex="1">
          <mxGeometry x="264.5" y="1457" width="114" height="36" as="geometry" />
        </mxCell>
        <mxCell id="fYWc9rKdTb6CDzyfWaW0-34" value="入库" style="rounded=0;whiteSpace=wrap;html=1;" parent="1" vertex="1">
          <mxGeometry x="262.5" y="1518" width="114" height="36" as="geometry" />
        </mxCell>
        <mxCell id="fYWc9rKdTb6CDzyfWaW0-35" value="平台服务" style="rounded=0;whiteSpace=wrap;html=1;verticalAlign=top;" parent="1" vertex="1">
          <mxGeometry x="447.5" y="1216" width="160" height="373" as="geometry" />
        </mxCell>
        <mxCell id="fYWc9rKdTb6CDzyfWaW0-36" value="监控查阅" style="rounded=0;whiteSpace=wrap;html=1;" parent="1" vertex="1">
          <mxGeometry x="467.5" y="1276" width="114" height="36" as="geometry" />
        </mxCell>
        <mxCell id="fYWc9rKdTb6CDzyfWaW0-37" value="日志查询" style="rounded=0;whiteSpace=wrap;html=1;" parent="1" vertex="1">
          <mxGeometry x="465.5" y="1337" width="114" height="36" as="geometry" />
        </mxCell>
        <mxCell id="fYWc9rKdTb6CDzyfWaW0-38" value="告警" style="rounded=0;whiteSpace=wrap;html=1;" parent="1" vertex="1">
          <mxGeometry x="465.5" y="1398" width="114" height="36" as="geometry" />
        </mxCell>
        <mxCell id="fYWc9rKdTb6CDzyfWaW0-39" value="组织/项目" style="rounded=0;whiteSpace=wrap;html=1;" parent="1" vertex="1">
          <mxGeometry x="468" y="1459" width="114" height="36" as="geometry" />
        </mxCell>
        <mxCell id="fYWc9rKdTb6CDzyfWaW0-40" value="OpenAPI" style="rounded=0;whiteSpace=wrap;html=1;" parent="1" vertex="1">
          <mxGeometry x="466" y="1520" width="114" height="36" as="geometry" />
        </mxCell>
        <mxCell id="fYWc9rKdTb6CDzyfWaW0-41" value="监控平台" style="rounded=0;whiteSpace=wrap;html=1;verticalAlign=top;" parent="1" vertex="1">
          <mxGeometry x="658" y="1216" width="160" height="373" as="geometry" />
        </mxCell>
        <mxCell id="fYWc9rKdTb6CDzyfWaW0-42" value="日志查询" style="rounded=0;whiteSpace=wrap;html=1;" parent="1" vertex="1">
          <mxGeometry x="678" y="1276" width="114" height="36" as="geometry" />
        </mxCell>
        <mxCell id="fYWc9rKdTb6CDzyfWaW0-43" value="性能分析" style="rounded=0;whiteSpace=wrap;html=1;" parent="1" vertex="1">
          <mxGeometry x="676" y="1337" width="114" height="36" as="geometry" />
        </mxCell>
        <mxCell id="fYWc9rKdTb6CDzyfWaW0-44" value="异常分析" style="rounded=0;whiteSpace=wrap;html=1;" parent="1" vertex="1">
          <mxGeometry x="676" y="1398" width="114" height="36" as="geometry" />
        </mxCell>
        <mxCell id="fYWc9rKdTb6CDzyfWaW0-45" value="可视化报表" style="rounded=0;whiteSpace=wrap;html=1;" parent="1" vertex="1">
          <mxGeometry x="678.5" y="1459" width="114" height="36" as="geometry" />
        </mxCell>
        <mxCell id="fYWc9rKdTb6CDzyfWaW0-55" value="监控管理端" style="rounded=1;whiteSpace=wrap;html=1;" parent="1" vertex="1">
          <mxGeometry x="105.5" y="1827" width="560" height="64" as="geometry" />
        </mxCell>
        <mxCell id="fYWc9rKdTb6CDzyfWaW0-56" value="前端监控SDK" style="rounded=1;whiteSpace=wrap;html=1;" parent="1" vertex="1">
          <mxGeometry x="103" y="1894" width="280" height="69" as="geometry" />
        </mxCell>
        <mxCell id="fYWc9rKdTb6CDzyfWaW0-57" value="工单系统" style="rounded=1;whiteSpace=wrap;html=1;" parent="1" vertex="1">
          <mxGeometry x="387.5" y="1897" width="140" height="30" as="geometry" />
        </mxCell>
        <mxCell id="fYWc9rKdTb6CDzyfWaW0-58" value="告警推断" style="rounded=1;whiteSpace=wrap;html=1;" parent="1" vertex="1">
          <mxGeometry x="528" y="1897" width="140" height="31" as="geometry" />
        </mxCell>
        <mxCell id="fYWc9rKdTb6CDzyfWaW0-59" value="告警总线" style="rounded=1;whiteSpace=wrap;html=1;" parent="1" vertex="1">
          <mxGeometry x="388" y="1930" width="280" height="33" as="geometry" />
        </mxCell>
        <mxCell id="fYWc9rKdTb6CDzyfWaW0-60" value="日志系统" style="rounded=1;whiteSpace=wrap;html=1;" parent="1" vertex="1">
          <mxGeometry x="103" y="1970" width="95" height="203" as="geometry" />
        </mxCell>
        <mxCell id="fYWc9rKdTb6CDzyfWaW0-61" value="活动拓扑" style="rounded=1;whiteSpace=wrap;html=1;" parent="1" vertex="1">
          <mxGeometry x="200.5" y="1971" width="93" height="34" as="geometry" />
        </mxCell>
        <mxCell id="fYWc9rKdTb6CDzyfWaW0-62" value="可视化工具" style="rounded=1;whiteSpace=wrap;html=1;" parent="1" vertex="1">
          <mxGeometry x="295" y="1971" width="93" height="34" as="geometry" />
        </mxCell>
        <mxCell id="fYWc9rKdTb6CDzyfWaW0-63" value="白盒分析" style="rounded=1;whiteSpace=wrap;html=1;" parent="1" vertex="1">
          <mxGeometry x="389" y="1970" width="93" height="34" as="geometry" />
        </mxCell>
        <mxCell id="fYWc9rKdTb6CDzyfWaW0-64" value="实时检测" style="rounded=1;whiteSpace=wrap;html=1;" parent="1" vertex="1">
          <mxGeometry x="483.5" y="1971" width="93" height="34" as="geometry" />
        </mxCell>
        <mxCell id="fYWc9rKdTb6CDzyfWaW0-65" value="逻辑验证" style="rounded=1;whiteSpace=wrap;html=1;" parent="1" vertex="1">
          <mxGeometry x="577.5" y="1971" width="93" height="34" as="geometry" />
        </mxCell>
        <mxCell id="fYWc9rKdTb6CDzyfWaW0-66" value="时序数据库" style="rounded=1;whiteSpace=wrap;html=1;" parent="1" vertex="1">
          <mxGeometry x="202" y="2010" width="465" height="36" as="geometry" />
        </mxCell>
        <mxCell id="fYWc9rKdTb6CDzyfWaW0-67" value="数据实时计算" style="rounded=1;whiteSpace=wrap;html=1;" parent="1" vertex="1">
          <mxGeometry x="202" y="2052" width="232" height="36" as="geometry" />
        </mxCell>
        <mxCell id="fYWc9rKdTb6CDzyfWaW0-68" value="数据聚合" style="rounded=1;whiteSpace=wrap;html=1;" parent="1" vertex="1">
          <mxGeometry x="438" y="2052" width="232" height="36" as="geometry" />
        </mxCell>
        <mxCell id="fYWc9rKdTb6CDzyfWaW0-71" value="数据采集清洗" style="rounded=1;whiteSpace=wrap;html=1;" parent="1" vertex="1">
          <mxGeometry x="203" y="2093" width="465" height="36" as="geometry" />
        </mxCell>
        <mxCell id="fYWc9rKdTb6CDzyfWaW0-72" value="网关信息" style="rounded=1;whiteSpace=wrap;html=1;" parent="1" vertex="1">
          <mxGeometry x="202" y="2136" width="93" height="34" as="geometry" />
        </mxCell>
        <mxCell id="fYWc9rKdTb6CDzyfWaW0-73" value="事务信息" style="rounded=1;whiteSpace=wrap;html=1;" parent="1" vertex="1">
          <mxGeometry x="296" y="2134" width="93" height="34" as="geometry" />
        </mxCell>
        <mxCell id="fYWc9rKdTb6CDzyfWaW0-75" value="存储信息" style="rounded=1;whiteSpace=wrap;html=1;" parent="1" vertex="1">
          <mxGeometry x="391" y="2133" width="139" height="34" as="geometry" />
        </mxCell>
        <mxCell id="fYWc9rKdTb6CDzyfWaW0-76" value="..." style="rounded=1;whiteSpace=wrap;html=1;" parent="1" vertex="1">
          <mxGeometry x="531" y="2133" width="139" height="34" as="geometry" />
        </mxCell>
        <mxCell id="fYWc9rKdTb6CDzyfWaW0-77" value="业务集群" style="rounded=1;whiteSpace=wrap;html=1;" parent="1" vertex="1">
          <mxGeometry x="101" y="2175" width="570" height="32" as="geometry" />
        </mxCell>
        <mxCell id="fYWc9rKdTb6CDzyfWaW0-78" value="Cloud" style="rounded=1;whiteSpace=wrap;html=1;" parent="1" vertex="1">
          <mxGeometry x="101" y="2212" width="570" height="32" as="geometry" />
        </mxCell>
        <mxCell id="QKrgrpkgF_wCYc5_PXvx-1" value="" style="rounded=0;whiteSpace=wrap;html=1;fontSize=9;" parent="1" vertex="1">
          <mxGeometry x="14" y="689" width="725" height="126" as="geometry" />
        </mxCell>
        <mxCell id="QKrgrpkgF_wCYc5_PXvx-2" value="注册登录" style="rounded=1;whiteSpace=wrap;html=1;fontSize=1;" parent="1" vertex="1">
          <mxGeometry x="25" y="706" width="108" height="35" as="geometry" />
        </mxCell>
        <mxCell id="QKrgrpkgF_wCYc5_PXvx-7" value="Vue /&amp;nbsp; Vue Router / Vuex / Element UI / GoJs" style="rounded=1;whiteSpace=wrap;html=1;fontSize=1;" parent="1" vertex="1">
          <mxGeometry x="25" y="758" width="700" height="39" as="geometry" />
        </mxCell>
        <mxCell id="QKrgrpkgF_wCYc5_PXvx-16" value="axios / ajax / HTTP" style="rounded=0;whiteSpace=wrap;html=1;fontSize=1;" parent="1" vertex="1">
          <mxGeometry x="13" y="831" width="725" height="48" as="geometry" />
        </mxCell>
        <mxCell id="QKrgrpkgF_wCYc5_PXvx-17" value="Web端视图层" style="rounded=0;whiteSpace=wrap;html=1;strokeColor=#FFFFFF;" parent="1" vertex="1">
          <mxGeometry x="-117" y="702" width="120" height="60" as="geometry" />
        </mxCell>
        <mxCell id="QKrgrpkgF_wCYc5_PXvx-18" value="接口层" style="rounded=0;whiteSpace=wrap;html=1;strokeColor=#FFFFFF;" parent="1" vertex="1">
          <mxGeometry x="-117" y="813" width="120" height="60" as="geometry" />
        </mxCell>
        <mxCell id="QKrgrpkgF_wCYc5_PXvx-19" value="" style="rounded=0;whiteSpace=wrap;html=1;fontSize=1;" parent="1" vertex="1">
          <mxGeometry x="14" y="893" width="725" height="135" as="geometry" />
        </mxCell>
        <mxCell id="QKrgrpkgF_wCYc5_PXvx-20" value="业务逻辑层" style="rounded=0;whiteSpace=wrap;html=1;strokeColor=#FFFFFF;" parent="1" vertex="1">
          <mxGeometry x="-117" y="929" width="120" height="60" as="geometry" />
        </mxCell>
        <mxCell id="QKrgrpkgF_wCYc5_PXvx-21" value="数据上报" style="rounded=1;whiteSpace=wrap;html=1;strokeColor=#000000;fontSize=1;" parent="1" vertex="1">
          <mxGeometry x="23.5" y="988" width="345" height="34" as="geometry" />
        </mxCell>
        <mxCell id="QKrgrpkgF_wCYc5_PXvx-24" value="数据采集" style="rounded=1;whiteSpace=wrap;html=1;strokeColor=#000000;fontSize=1;" parent="1" vertex="1">
          <mxGeometry x="381.5" y="989" width="345" height="33" as="geometry" />
        </mxCell>
        <mxCell id="QKrgrpkgF_wCYc5_PXvx-25" value="数据聚合、计算" style="rounded=1;whiteSpace=wrap;html=1;strokeColor=#000000;fontSize=1;" parent="1" vertex="1">
          <mxGeometry x="24" y="948" width="703" height="29" as="geometry" />
        </mxCell>
        <mxCell id="QKrgrpkgF_wCYc5_PXvx-27" value="告警工单" style="rounded=1;whiteSpace=wrap;html=1;fontSize=1;" parent="1" vertex="1">
          <mxGeometry x="321.5" y="706" width="108" height="35" as="geometry" />
        </mxCell>
        <mxCell id="QKrgrpkgF_wCYc5_PXvx-28" value="....." style="rounded=1;whiteSpace=wrap;html=1;fontSize=1;" parent="1" vertex="1">
          <mxGeometry x="612" y="706" width="108" height="35" as="geometry" />
        </mxCell>
        <mxCell id="QKrgrpkgF_wCYc5_PXvx-29" value="日志查询" style="rounded=1;whiteSpace=wrap;html=1;fontSize=1;" parent="1" vertex="1">
          <mxGeometry x="180" y="706" width="108" height="35" as="geometry" />
        </mxCell>
        <mxCell id="QKrgrpkgF_wCYc5_PXvx-30" value="可视化报表" style="rounded=1;whiteSpace=wrap;html=1;fontSize=1;" parent="1" vertex="1">
          <mxGeometry x="473.5" y="706" width="108" height="35" as="geometry" />
        </mxCell>
        <mxCell id="QKrgrpkgF_wCYc5_PXvx-31" value="实时检测" style="rounded=1;whiteSpace=wrap;html=1;strokeColor=#000000;fontSize=1;" parent="1" vertex="1">
          <mxGeometry x="25" y="902" width="210" height="38" as="geometry" />
        </mxCell>
        <mxCell id="QKrgrpkgF_wCYc5_PXvx-33" value="逻辑验证" style="rounded=1;whiteSpace=wrap;html=1;strokeColor=#000000;fontSize=1;" parent="1" vertex="1">
          <mxGeometry x="265" y="902" width="210" height="38" as="geometry" />
        </mxCell>
        <mxCell id="QKrgrpkgF_wCYc5_PXvx-34" value="告警分析" style="rounded=1;whiteSpace=wrap;html=1;strokeColor=#000000;fontSize=1;" parent="1" vertex="1">
          <mxGeometry x="516.5" y="902" width="210" height="38" as="geometry" />
        </mxCell>
        <mxCell id="QKrgrpkgF_wCYc5_PXvx-35" value="mysql" style="rounded=0;whiteSpace=wrap;html=1;strokeColor=#000000;fontSize=1;" parent="1" vertex="1">
          <mxGeometry x="12" y="1044" width="727" height="56" as="geometry" />
        </mxCell>
        <mxCell id="QKrgrpkgF_wCYc5_PXvx-43" value="" style="rounded=0;whiteSpace=wrap;html=1;fontSize=9;fontColor=#FFFFFF;strokeColor=#FFFFFF;" parent="1" vertex="1">
          <mxGeometry x="-8" y="629" width="18" height="500" as="geometry" />
        </mxCell>
        <mxCell id="QKrgrpkgF_wCYc5_PXvx-44" value="数据库" style="rounded=0;whiteSpace=wrap;html=1;strokeColor=#FFFFFF;" parent="1" vertex="1">
          <mxGeometry x="-117" y="1044" width="120" height="60" as="geometry" />
        </mxCell>
        <mxCell id="bMokqmk0_0SIF5vjI4ZZ-2" value="加载flog文件" style="ellipse;whiteSpace=wrap;html=1;" parent="1" vertex="1">
          <mxGeometry x="-431" y="1191" width="120" height="80" as="geometry" />
        </mxCell>
        <mxCell id="bMokqmk0_0SIF5vjI4ZZ-3" value="初始化页面监听（包括资源加载异常，js错误）" style="rounded=1;whiteSpace=wrap;html=1;" parent="1" vertex="1">
          <mxGeometry x="-431" y="1306.5" width="120" height="60" as="geometry" />
        </mxCell>
        <mxCell id="bMokqmk0_0SIF5vjI4ZZ-6" value="配置信息" style="endArrow=classic;html=1;rounded=0;" parent="1" source="bMokqmk0_0SIF5vjI4ZZ-2" target="bMokqmk0_0SIF5vjI4ZZ-3" edge="1">
          <mxGeometry width="50" height="50" relative="1" as="geometry">
            <mxPoint x="-582" y="1426" as="sourcePoint" />
            <mxPoint x="-532" y="1376" as="targetPoint" />
          </mxGeometry>
        </mxCell>
        <mxCell id="bMokqmk0_0SIF5vjI4ZZ-7" value="flog core 是否加载完成" style="rhombus;whiteSpace=wrap;html=1;" parent="1" vertex="1">
          <mxGeometry x="-411" y="1402" width="80" height="80" as="geometry" />
        </mxCell>
        <mxCell id="bMokqmk0_0SIF5vjI4ZZ-8" value="" style="endArrow=classic;html=1;rounded=0;" parent="1" source="bMokqmk0_0SIF5vjI4ZZ-3" target="bMokqmk0_0SIF5vjI4ZZ-7" edge="1">
          <mxGeometry width="50" height="50" relative="1" as="geometry">
            <mxPoint x="-9" y="1426.5" as="sourcePoint" />
            <mxPoint x="41" y="1376.5" as="targetPoint" />
          </mxGeometry>
        </mxCell>
        <mxCell id="bMokqmk0_0SIF5vjI4ZZ-9" value="检查配置并根据规则初始化 flog core" style="rounded=1;whiteSpace=wrap;html=1;" parent="1" vertex="1">
          <mxGeometry x="-252" y="1412" width="120" height="60" as="geometry" />
        </mxCell>
        <mxCell id="bMokqmk0_0SIF5vjI4ZZ-10" value="" style="endArrow=classic;html=1;rounded=0;" parent="1" source="bMokqmk0_0SIF5vjI4ZZ-7" target="bMokqmk0_0SIF5vjI4ZZ-9" edge="1">
          <mxGeometry width="50" height="50" relative="1" as="geometry">
            <mxPoint x="-15" y="1406" as="sourcePoint" />
            <mxPoint x="35" y="1356" as="targetPoint" />
          </mxGeometry>
        </mxCell>
        <mxCell id="bMokqmk0_0SIF5vjI4ZZ-11" value="日志写入flog中间数组" style="rounded=1;whiteSpace=wrap;html=1;" parent="1" vertex="1">
          <mxGeometry x="-630" y="1412" width="120" height="60" as="geometry" />
        </mxCell>
        <mxCell id="bMokqmk0_0SIF5vjI4ZZ-12" value="否" style="endArrow=classic;rounded=0;html=1;labelBorderColor=none;" parent="1" edge="1">
          <mxGeometry width="50" height="50" relative="1" as="geometry">
            <mxPoint x="-411" y="1442" as="sourcePoint" />
            <mxPoint x="-510" y="1442" as="targetPoint" />
          </mxGeometry>
        </mxCell>
        <mxCell id="bMokqmk0_0SIF5vjI4ZZ-13" value="初始化" style="rounded=1;whiteSpace=wrap;html=1;" parent="1" vertex="1">
          <mxGeometry x="-431" y="1529" width="120" height="60" as="geometry" />
        </mxCell>
        <mxCell id="bMokqmk0_0SIF5vjI4ZZ-14" value="是" style="endArrow=classic;html=1;rounded=0;labelBorderColor=none;" parent="1" source="bMokqmk0_0SIF5vjI4ZZ-7" target="bMokqmk0_0SIF5vjI4ZZ-13" edge="1">
          <mxGeometry width="50" height="50" relative="1" as="geometry">
            <mxPoint x="-9" y="1345" as="sourcePoint" />
            <mxPoint x="41" y="1295" as="targetPoint" />
          </mxGeometry>
        </mxCell>
        <mxCell id="bMokqmk0_0SIF5vjI4ZZ-16" value="" style="edgeStyle=elbowEdgeStyle;elbow=vertical;endArrow=classic;html=1;rounded=0;labelBorderColor=none;" parent="1" source="bMokqmk0_0SIF5vjI4ZZ-11" target="bMokqmk0_0SIF5vjI4ZZ-13" edge="1">
          <mxGeometry width="50" height="50" relative="1" as="geometry">
            <mxPoint x="-574" y="1468" as="sourcePoint" />
            <mxPoint x="41" y="1595" as="targetPoint" />
            <Array as="points">
              <mxPoint x="-574" y="1553" />
            </Array>
          </mxGeometry>
        </mxCell>
        <mxCell id="bMokqmk0_0SIF5vjI4ZZ-17" value="条数限制检查，日期显示检查，内部时间注册，操作检查，事件抛出" style="rounded=1;whiteSpace=wrap;html=1;" parent="1" vertex="1">
          <mxGeometry x="-252" y="1529" width="120" height="60" as="geometry" />
        </mxCell>
        <mxCell id="bMokqmk0_0SIF5vjI4ZZ-18" value="" style="endArrow=classic;html=1;rounded=0;labelBorderColor=none;" parent="1" source="bMokqmk0_0SIF5vjI4ZZ-13" target="bMokqmk0_0SIF5vjI4ZZ-17" edge="1">
          <mxGeometry width="50" height="50" relative="1" as="geometry">
            <mxPoint x="-9" y="1623" as="sourcePoint" />
            <mxPoint x="41" y="1573" as="targetPoint" />
          </mxGeometry>
        </mxCell>
        <mxCell id="bMokqmk0_0SIF5vjI4ZZ-53" value="否" style="edgeStyle=orthogonalEdgeStyle;rounded=0;orthogonalLoop=1;jettySize=auto;html=1;labelBorderColor=none;" parent="1" source="bMokqmk0_0SIF5vjI4ZZ-19" target="bMokqmk0_0SIF5vjI4ZZ-21" edge="1">
          <mxGeometry relative="1" as="geometry" />
        </mxCell>
        <mxCell id="bMokqmk0_0SIF5vjI4ZZ-55" value="" style="edgeStyle=orthogonalEdgeStyle;rounded=0;orthogonalLoop=1;jettySize=auto;html=1;labelBorderColor=none;" parent="1" source="bMokqmk0_0SIF5vjI4ZZ-19" target="bMokqmk0_0SIF5vjI4ZZ-23" edge="1">
          <mxGeometry relative="1" as="geometry" />
        </mxCell>
        <mxCell id="bMokqmk0_0SIF5vjI4ZZ-19" value="flog core 是否初始化完成" style="rhombus;whiteSpace=wrap;html=1;" parent="1" vertex="1">
          <mxGeometry x="-411" y="1614" width="80" height="80" as="geometry" />
        </mxCell>
        <mxCell id="bMokqmk0_0SIF5vjI4ZZ-20" value="" style="endArrow=classic;html=1;rounded=0;labelBorderColor=none;" parent="1" source="bMokqmk0_0SIF5vjI4ZZ-13" target="bMokqmk0_0SIF5vjI4ZZ-19" edge="1">
          <mxGeometry width="50" height="50" relative="1" as="geometry">
            <mxPoint x="-9" y="1623" as="sourcePoint" />
            <mxPoint x="41" y="1573" as="targetPoint" />
          </mxGeometry>
        </mxCell>
        <mxCell id="bMokqmk0_0SIF5vjI4ZZ-23" value="结构cgi报错" style="rounded=1;whiteSpace=wrap;html=1;" parent="1" vertex="1">
          <mxGeometry x="-254" y="1624" width="120" height="60" as="geometry" />
        </mxCell>
        <mxCell id="bMokqmk0_0SIF5vjI4ZZ-24" value="是" style="endArrow=classic;html=1;rounded=0;labelBorderColor=none;" parent="1" source="bMokqmk0_0SIF5vjI4ZZ-19" target="bMokqmk0_0SIF5vjI4ZZ-25" edge="1">
          <mxGeometry width="50" height="50" relative="1" as="geometry">
            <mxPoint x="-9" y="1623" as="sourcePoint" />
            <mxPoint x="41" y="1573" as="targetPoint" />
          </mxGeometry>
        </mxCell>
        <mxCell id="bMokqmk0_0SIF5vjI4ZZ-25" value="日志塞入flog core" style="rounded=1;whiteSpace=wrap;html=1;" parent="1" vertex="1">
          <mxGeometry x="-428" y="1730" width="120" height="60" as="geometry" />
        </mxCell>
        <mxCell id="bMokqmk0_0SIF5vjI4ZZ-26" value="flog core 是否处于暂停状态" style="rhombus;whiteSpace=wrap;html=1;" parent="1" vertex="1">
          <mxGeometry x="-411" y="1827" width="80" height="80" as="geometry" />
        </mxCell>
        <mxCell id="bMokqmk0_0SIF5vjI4ZZ-27" value="" style="endArrow=classic;html=1;rounded=0;labelBorderColor=none;" parent="1" source="bMokqmk0_0SIF5vjI4ZZ-25" target="bMokqmk0_0SIF5vjI4ZZ-26" edge="1">
          <mxGeometry width="50" height="50" relative="1" as="geometry">
            <mxPoint x="-9" y="1623" as="sourcePoint" />
            <mxPoint x="41" y="1573" as="targetPoint" />
          </mxGeometry>
        </mxCell>
        <mxCell id="bMokqmk0_0SIF5vjI4ZZ-28" value="日志塞入flog队列" style="rounded=1;whiteSpace=wrap;html=1;" parent="1" vertex="1">
          <mxGeometry x="-431" y="1943" width="120" height="60" as="geometry" />
        </mxCell>
        <mxCell id="bMokqmk0_0SIF5vjI4ZZ-29" value="日志塞入indexeddb" style="rounded=1;whiteSpace=wrap;html=1;" parent="1" vertex="1">
          <mxGeometry x="-431" y="2039.5" width="120" height="60" as="geometry" />
        </mxCell>
        <mxCell id="bMokqmk0_0SIF5vjI4ZZ-33" value="否" style="endArrow=classic;html=1;rounded=0;labelBorderColor=none;" parent="1" source="bMokqmk0_0SIF5vjI4ZZ-26" target="bMokqmk0_0SIF5vjI4ZZ-28" edge="1">
          <mxGeometry width="50" height="50" relative="1" as="geometry">
            <mxPoint x="-9" y="1923" as="sourcePoint" />
            <mxPoint x="41" y="1873" as="targetPoint" />
          </mxGeometry>
        </mxCell>
        <mxCell id="bMokqmk0_0SIF5vjI4ZZ-35" value="队列消费" style="endArrow=classic;html=1;rounded=0;labelBorderColor=none;" parent="1" source="bMokqmk0_0SIF5vjI4ZZ-28" target="bMokqmk0_0SIF5vjI4ZZ-29" edge="1">
          <mxGeometry width="50" height="50" relative="1" as="geometry">
            <mxPoint x="-9" y="1923" as="sourcePoint" />
            <mxPoint x="41" y="1873" as="targetPoint" />
          </mxGeometry>
        </mxCell>
        <mxCell id="bMokqmk0_0SIF5vjI4ZZ-37" value="是否超出条数限制" style="rhombus;whiteSpace=wrap;html=1;" parent="1" vertex="1">
          <mxGeometry x="-411" y="2134" width="80" height="80" as="geometry" />
        </mxCell>
        <mxCell id="bMokqmk0_0SIF5vjI4ZZ-38" value="" style="endArrow=classic;html=1;rounded=0;labelBorderColor=none;" parent="1" source="bMokqmk0_0SIF5vjI4ZZ-29" target="bMokqmk0_0SIF5vjI4ZZ-37" edge="1">
          <mxGeometry width="50" height="50" relative="1" as="geometry">
            <mxPoint x="-9" y="2023" as="sourcePoint" />
            <mxPoint x="41" y="1973" as="targetPoint" />
          </mxGeometry>
        </mxCell>
        <mxCell id="bMokqmk0_0SIF5vjI4ZZ-39" value="模块配置的删除间隔对每次新增操作进行检查删除" style="ellipse;whiteSpace=wrap;html=1;" parent="1" vertex="1">
          <mxGeometry x="-431" y="2261" width="120" height="80" as="geometry" />
        </mxCell>
        <mxCell id="bMokqmk0_0SIF5vjI4ZZ-40" value="是" style="endArrow=classic;html=1;rounded=0;labelBorderColor=none;" parent="1" source="bMokqmk0_0SIF5vjI4ZZ-37" target="bMokqmk0_0SIF5vjI4ZZ-39" edge="1">
          <mxGeometry width="50" height="50" relative="1" as="geometry">
            <mxPoint x="-412" y="2204" as="sourcePoint" />
            <mxPoint x="-62" y="2092" as="targetPoint" />
          </mxGeometry>
        </mxCell>
        <mxCell id="bMokqmk0_0SIF5vjI4ZZ-56" value="&lt;span style=&quot;color: rgb(0, 0, 0); font-family: Helvetica; font-size: 11px; font-style: normal; font-variant-ligatures: normal; font-variant-caps: normal; font-weight: 400; letter-spacing: normal; orphans: 2; text-align: center; text-indent: 0px; text-transform: none; widows: 2; word-spacing: 0px; -webkit-text-stroke-width: 0px; background-color: rgb(255, 255, 255); text-decoration-thickness: initial; text-decoration-style: initial; text-decoration-color: initial; float: none; display: inline !important;&quot;&gt;触发startTheWorld事件，取出现有量的75%，放入中间数组&lt;/span&gt;&lt;br&gt;" style="edgeStyle=orthogonalEdgeStyle;rounded=0;orthogonalLoop=1;jettySize=auto;html=1;labelBorderColor=none;" parent="1" source="bMokqmk0_0SIF5vjI4ZZ-41" target="bMokqmk0_0SIF5vjI4ZZ-42" edge="1">
          <mxGeometry relative="1" as="geometry">
            <Array as="points">
              <mxPoint x="-563" y="1766" />
            </Array>
          </mxGeometry>
        </mxCell>
        <mxCell id="bMokqmk0_0SIF5vjI4ZZ-41" value="日志写入 flog 中间数组" style="rounded=1;whiteSpace=wrap;html=1;" parent="1" vertex="1">
          <mxGeometry x="-623" y="1841" width="120" height="60" as="geometry" />
        </mxCell>
        <mxCell id="bMokqmk0_0SIF5vjI4ZZ-42" value="indexeddb出发 QuotaExceededError" style="rounded=1;whiteSpace=wrap;html=1;" parent="1" vertex="1">
          <mxGeometry x="-1053" y="1754" width="120" height="60" as="geometry" />
        </mxCell>
        <mxCell id="bMokqmk0_0SIF5vjI4ZZ-43" value="清容" style="ellipse;whiteSpace=wrap;html=1;" parent="1" vertex="1">
          <mxGeometry x="-1053" y="1589" width="120" height="80" as="geometry" />
        </mxCell>
        <mxCell id="bMokqmk0_0SIF5vjI4ZZ-44" value="" style="endArrow=classic;html=1;rounded=0;labelBorderColor=none;" parent="1" source="bMokqmk0_0SIF5vjI4ZZ-43" target="bMokqmk0_0SIF5vjI4ZZ-42" edge="1">
          <mxGeometry width="50" height="50" relative="1" as="geometry">
            <mxPoint x="-215" y="1992" as="sourcePoint" />
            <mxPoint x="-165" y="1942" as="targetPoint" />
          </mxGeometry>
        </mxCell>
        <mxCell id="bMokqmk0_0SIF5vjI4ZZ-45" value="删库" style="rounded=1;whiteSpace=wrap;html=1;" parent="1" vertex="1">
          <mxGeometry x="-1053" y="1986" width="120" height="60" as="geometry" />
        </mxCell>
        <mxCell id="bMokqmk0_0SIF5vjI4ZZ-46" value="触发startTheWorld事件，检查db是否可用" style="edgeStyle=elbowEdgeStyle;elbow=vertical;endArrow=classic;html=1;rounded=0;labelBorderColor=none;" parent="1" source="bMokqmk0_0SIF5vjI4ZZ-45" target="bMokqmk0_0SIF5vjI4ZZ-29" edge="1">
          <mxGeometry width="50" height="50" relative="1" as="geometry">
            <mxPoint x="-603" y="2064" as="sourcePoint" />
            <mxPoint x="-79" y="1940" as="targetPoint" />
          </mxGeometry>
        </mxCell>
        <mxCell id="bMokqmk0_0SIF5vjI4ZZ-48" value="" style="endArrow=classic;html=1;rounded=0;labelBorderColor=none;" parent="1" source="bMokqmk0_0SIF5vjI4ZZ-42" target="bMokqmk0_0SIF5vjI4ZZ-45" edge="1">
          <mxGeometry width="50" height="50" relative="1" as="geometry">
            <mxPoint x="-215" y="1992" as="sourcePoint" />
            <mxPoint x="-165" y="1942" as="targetPoint" />
          </mxGeometry>
        </mxCell>
        <mxCell id="bMokqmk0_0SIF5vjI4ZZ-49" value="是" style="endArrow=classic;html=1;rounded=0;labelBorderColor=none;" parent="1" source="bMokqmk0_0SIF5vjI4ZZ-26" target="bMokqmk0_0SIF5vjI4ZZ-41" edge="1">
          <mxGeometry width="50" height="50" relative="1" as="geometry">
            <mxPoint x="-130" y="1990" as="sourcePoint" />
            <mxPoint x="-80" y="1940" as="targetPoint" />
          </mxGeometry>
        </mxCell>
        <mxCell id="bMokqmk0_0SIF5vjI4ZZ-21" value="初始化flog core" style="rounded=1;whiteSpace=wrap;html=1;" parent="1" vertex="1">
          <mxGeometry x="-632" y="1624" width="120" height="60" as="geometry" />
        </mxCell>
        <mxCell id="bMokqmk0_0SIF5vjI4ZZ-57" value="flog core触发startTheWorld事件" style="edgeStyle=elbowEdgeStyle;elbow=vertical;endArrow=classic;html=1;rounded=0;labelBorderColor=none;" parent="1" source="bMokqmk0_0SIF5vjI4ZZ-41" target="bMokqmk0_0SIF5vjI4ZZ-29" edge="1">
          <mxGeometry width="50" height="50" relative="1" as="geometry">
            <mxPoint x="-159" y="1961" as="sourcePoint" />
            <mxPoint x="-489" y="2099" as="targetPoint" />
            <Array as="points">
              <mxPoint x="-563" y="2018" />
            </Array>
          </mxGeometry>
        </mxCell>
      </root>
    </mxGraphModel>
  </diagram>
</mxfile>
